# xmcd
#
# Track frame offsets:
# 150
# 13790
# 27941
# 33484
# 46897
# 63166
# 73678
# 81337
# 93120
# 101871
# 115408
# 126136
#
# Disc length: 1840 seconds
#
#
# Revision: 0
# Processed by: cddbd v1.5.2PL0 Copyright (c) Steve Scherf et al.
# Submitted via: FreeRIP 2.942 
#
DISCID=9d072e0c
DTITLE=Various Artist - Country Greats Disc Two
DYEAR=1900
DGENRE=Country
TTITLE0=Lynn Anderson - Talking In Your Sleep
TTITLE1=Freddy Fender - Wasted Days
TTITLE2=Willie Nelson - The Ghost
TTITLE3=Kenny Rogers - Shine On Ruby Mountain
TTITLE4=Lynn Anderson - The Devil Went Down To Georgia
TTITLE5=Kenny Rogers - Ticket To Nowhere
TTITLE6=Jim Reeves - Oklahoma Hills
TTITLE7=Rick Nelson - Fools Rush In
TTITLE8=Patsy Cline - Come On In And Make Yourself At Home
TTITLE9=Federation - Cowboy Reggae
TTITLE10=Patsy Cline - Stop Look And Listen
TTITLE11=Tina Turner - Stand By Your Man
EXTD=
EXTT0=
EXTT1=
EXTT2=
EXTT3=
EXTT4=
EXTT5=
EXTT6=
EXTT7=
EXTT8=
EXTT9=
EXTT10=
EXTT11=
PLAYORDER=
